# xmcd
#
# Track frame offsets: 
#        150
#        14162
#        25357
#        39259
#        51439
#        66550
#        80536
#        93685
#        108099
#        121614
#        134520
#        147561
#        159578
#        172289
#        184369
#        198166
#        210781
#        222869
#        237165
#        249556
#        262558
#        274360
#        287573
#        300225
#
# Disc length: 4181 seconds
#
# Revision: 2
# Processed by: cddbd v1.5.2PL0 Copyright (c) Steve Scherf et al.
# Submitted via: ExactAudioCopyFreeDBPlugin 1.0
#
DISCID=61105318
DTITLE=Selah Jubilee Singers - Complete Recorded Works Vol. 1 (1939-19
DTITLE=41)
DYEAR=1996
DGENRE=Gospel
TTITLE0=Royal Telephone
TTITLE1=Traveling Shoes
TTITLE2=How Happy Am I
TTITLE3=What He Done for Me
TTITLE4=I Want Jesus to Walk Around My Bedside
TTITLE5=Take My Hand Precious Lord (Lead Me On)
TTITLE6=I'm Tormented in the Flames
TTITLE7=They Kicked the Devil Out of Heaven
TTITLE8=Stop Playing Numbers and Pray
TTITLE9=We Shall All Meet in Heaven
TTITLE10=What More Can Jesus Do?
TTITLE11=There's Something Within Me
TTITLE12=I'll Fly Away
TTITLE13=Here Am I
TTITLE14=Hide Me in Thy Bosom
TTITLE15=Leak in the Building
TTITLE16=What a Time
TTITLE17=I Feel Like My Time Ain't Long
TTITLE18=Done Made It Over
TTITLE19=When I Come to the End of My Journey
TTITLE20=Hide Me Over in the Rock of Ages
TTITLE21=I Will Guide Thee
TTITLE22=How Did You Feel When You Come Out of the Wilderness
TTITLE23=Have You Any Time for Jesus
EXTD=
EXTT0=
EXTT1=
EXTT2=
EXTT3=
EXTT4=
EXTT5=
EXTT6=
EXTT7=
EXTT8=
EXTT9=
EXTT10=
EXTT11=
EXTT12=
EXTT13=
EXTT14=
EXTT15=
EXTT16=
EXTT17=
EXTT18=
EXTT19=
EXTT20=
EXTT21=
EXTT22=
EXTT23=
PLAYORDER=
